<?xml version="1.0" encoding="UTF-8"?>
<svg id="Capa_1" xmlns="http://www.w3.org/2000/svg" version="1.1" viewBox="0 0 32 32">
  <!-- Generator: Adobe Illustrator 30.4.0, SVG Export Plug-In . SVG Version: 2.1.4 Build 226)  -->
  <defs>
    <style>
      .st0 {
        fill: #075356;
      }

      .st1 {
        fill: #0ea7b7;
      }
    </style>
  </defs>
  <path class="st0" d="M11.41,10.63l-1.44-1.24c-.04.14-.13.48-.13.58v4.28s-1.15.96-1.15.96l-.96.8-.74.54v-8.26c.05-.22.51-.6.7-.75l2.17-1.69,10,8.67-.89.87-.82.71c-.08.07-.4,0-.49-.08l-.92-.8-1.58-1.37-3.75-3.24h0Z"/>
  <path class="st0" d="M12.39,17.66l1.92-1.63,1.74,1.5,3.64,3.14,2.13,1.84s.12-.03.32-.07l-.04-2.98c0-.32-.19-1.13.02-1.32l1.46-1.28,1.42-1.17.02,8.09-1.41,1.29-1.4,1.07-2.83-2.42-1.73-1.51-3.21-2.77-1.46-1.26-.58-.54v.02h0Z"/>
  <path class="st1" d="M14.33,22.36l-.79.65-1.29,1.07-1,.83-1.38,1.14-.61-.41-.88-.68-.85-.66c-.15-.12-.39-.54-.39-.73v-4.36c0-.45,0-1.36.31-1.66l1.02-.98.95-.76,1.11-.9.93-.75,1.03-.83.33-.27c.08-.06.29.18.37.25l1.17,1.03c.07.06.26.25.2.31l-.26.27-2.41,2-1.68,1.51c-.2.18-.23.85-.23,1.11l.02,1.01.04,2.22.94-.78,1.2-1,1.01-.84c.06-.05.25-.17.33-.2s.25.1.32.16l1.58,1.36-1.08.9h0Z"/>
  <path class="st1" d="M18.77,16.59l.81-.69,1.13-.95c.43-.36,1.27-1.08,1.28-1.69l.04-2.53-.04-1.2-1.01.68-1.64,1.4-.77.66-1.57-1.34c-.07-.06-.26-.21-.21-.28s.18-.22.26-.28l1.29-1.09,1.28-1.08,1.09-.93,1.45-1.3,1.04.83,1.05.84c.24.2.59.54.59.86v5.27c0,.77-.49,1.36-1.04,1.8l-.84.68-1.29,1.08-.82.69-1.57,1.31-1.09-.98-.7-.65,1.28-1.09h0,0Z"/>
</svg>