<svg xmlns="http://www.w3.org/2000/svg" viewBox="0 0 4056 1215" width="4056" height="1215">
<rect width="4056" height="1215" fill="#0A0A0A"/>
<g transform="translate(245.82000000000002,961.82) scale(1,-1)">
<path d="M349 238H252V0H56V705H349Q434 705 493.5 675.0Q553 645 583.0 592.0Q613 539 613 470Q613 406 583.5 353.5Q554 301 494.5 269.5Q435 238 349 238ZM413 470Q413 547 330 547H252V394H330Q413 394 413 470Z" fill="#FFFFFF" transform="translate(0,0)"/>
<path d="M248 705V296Q248 239 274.5 208.0Q301 177 355 177Q409 177 436.5 208.5Q464 240 464 296V705H660V296Q660 199 619.0 130.5Q578 62 507.5 27.5Q437 -7 351 -7Q265 -7 197.5 27.5Q130 62 91.5 130.0Q53 198 53 296V705Z" fill="#FFFFFF" transform="translate(656,0)"/>
<path d="M252 150H471V0H56V705H252Z" fill="#FFFFFF" transform="translate(1388,0)"/>
<path d="M35 219H244Q247 182 266.0 165.0Q285 148 315 148Q342 148 359.5 161.5Q377 175 377 199Q377 230 348.0 247.0Q319 264 254 285Q185 308 142.5 329.5Q100 351 68.5 392.5Q37 434 37 501Q37 569 71.0 617.5Q105 666 165.0 691.0Q225 716 301 716Q424 716 497.5 658.5Q571 601 576 497H363Q362 529 343.5 545.0Q325 561 296 561Q274 561 260.0 548.0Q246 535 246 511Q246 491 261.5 476.5Q277 462 300.0 451.5Q323 441 368 425Q435 402 478.5 379.5Q522 357 553.5 316.5Q585 276 585 214Q585 151 553.5 101.0Q522 51 462.5 22.0Q403 -7 322 -7Q199 -7 120.0 51.5Q41 110 35 219Z" fill="#FFFFFF" transform="translate(1899,0)"/>
<path d="M252 548V433H477V284H252V157H507V0H56V705H507V548Z" fill="#FFFFFF" transform="translate(2539,0)"/>
<circle cx="3405.12" cy="354.5" r="159.06" fill="#FFFFFF"/>
</g>
</svg>