<?xml version="1.0" encoding="UTF-8"?>
<svg id="Capa_1" xmlns="http://www.w3.org/2000/svg" version="1.1" viewBox="0 0 200 40">
  <!-- Generator: Adobe Illustrator 30.4.0, SVG Export Plug-In . SVG Version: 2.1.4 Build 226)  -->
  <defs>
    <style>
      .st0 {
        fill: #075356;
      }

      .st1 {
        fill: #07626a;
      }

      .st2 {
        fill: #0ea7b7;
      }
    </style>
  </defs>
  <g>
    <path class="st0" d="M18.88,14.58l-1.44-1.24c-.04.14-.13.48-.13.58v4.28l-1.15.96-.96.8-.74.54v-8.26c.05-.22.51-.6.7-.75l2.17-1.69,10,8.67-.89.87-.82.71c-.08.07-.4,0-.49-.08l-.92-.8-1.58-1.37-3.75-3.24h0v.02Z"/>
    <path class="st0" d="M19.86,21.61l1.92-1.63,1.74,1.5,3.64,3.14,2.13,1.84s.12-.03.32-.07l-.04-2.98c0-.32-.19-1.13.02-1.32l1.46-1.28,1.42-1.17.02,8.09-1.41,1.29-1.4,1.07-2.83-2.42-1.73-1.51-3.21-2.77-1.46-1.26-.58-.54v.02h0Z"/>
    <path class="st2" d="M21.8,26.31l-.79.65-1.29,1.07-1,.83-1.38,1.14-.61-.41-.88-.68-.85-.66c-.15-.12-.39-.54-.39-.73v-4.36c0-.45,0-1.36.31-1.66l1.02-.98.95-.76,1.11-.9.93-.75,1.03-.83.33-.27c.08-.06.29.18.37.25l1.17,1.03c.07.06.26.25.2.31l-.26.27-2.41,2-1.68,1.51c-.2.18-.23.85-.23,1.11l.02,1.01.04,2.22.94-.78,1.2-1,1.01-.84c.06-.05.25-.17.33-.2s.25.1.32.16l1.58,1.36-1.08.9h0Z"/>
    <path class="st2" d="M26.24,20.54l.81-.69,1.13-.95c.43-.36,1.27-1.08,1.28-1.69l.04-2.53-.04-1.2-1.01.68-1.64,1.4-.77.66-1.57-1.34c-.07-.06-.26-.21-.21-.28s.18-.22.26-.28l1.29-1.09,1.28-1.08,1.09-.93,1.45-1.3,1.04.83,1.05.84c.24.2.59.54.59.86v5.27c0,.77-.49,1.36-1.04,1.8l-.84.68-1.29,1.08-.82.69-1.57,1.31-1.09-.98-.7-.65,1.28-1.09h0v-.02Z"/>
  </g>
  <path class="st1" d="M99.38,24.49c-1.73.6-1.75-1.86-3.26-2.5-.76-.32-2.54.05-2.47.66.12,1.01.26,1.87-.85,2.08l-.06-8.22,3.86.04c1.38.01,2.48,1.06,2.62,2.16.18,1.35-.36,2.43-1.74,3.12l1.89,2.65ZM97.03,21.01c.67-.05,1.41-1.39,1.31-1.96-.08-.5-.86-1.51-1.39-1.55l-3.27-.23-.03,4,3.37-.27Z"/>
  <path class="st1" d="M109.18,20.54c0,2.32-1.93,4.2-4.31,4.2s-4.31-1.88-4.31-4.2,1.93-4.2,4.31-4.2,4.31,1.88,4.31,4.2ZM108.2,20.54c0-1.81-1.5-3.27-3.36-3.27s-3.36,1.46-3.36,3.27,1.5,3.27,3.36,3.27,3.36-1.46,3.36-3.27Z"/>
  <path class="st1" d="M87.53,22l-1.84.03c-.36,0-.28,1.18-.31,1.53l-.08,1.02c-.02.2-.81-.22-.81-.46v-7.58s3.84,0,3.84,0c1.79,0,2.76,1.41,2.7,2.81-.07,1.73-1.36,2.61-3.5,2.64ZM88.58,21.14c.6-.01,1.5-1.17,1.54-1.75s-.69-1.87-1.31-1.9l-3.4-.18.05,3.89,3.12-.06Z"/>
  <polygon class="st2" points="51.24 25.08 49.18 25.03 44.76 19.65 44.72 25.08 42.5 25.11 42.51 15.9 44.6 16 48.91 21.13 49.04 15.92 51.22 15.88 51.24 25.08"/>
  <path class="st2" d="M76.09,25.27c-2.98-.04-5.04-2.02-5.08-4.69s2.12-4.77,4.95-4.86,5.23,1.9,5.31,4.55c.08,2.83-2.08,5.04-5.17,5ZM73.46,21.12c.27,1.85,1.71,2.29,3.21,2.1,1.09-.13,2.21-1.22,2.26-2.66.04-1.14-.86-2.45-2.04-2.82-1.03-.33-2.68.29-3.18,1.31-.19.4-.3,1.6-.24,2.07Z"/>
  <path class="st2" d="M59.99,21.28h-4.46s0,1.95,0,1.95h4.89c.56-.01.71,1.6.19,1.83l-7.35.06v-9.21s7.23-.01,7.23-.01l.06,1.8h-5.03s.01,1.86.01,1.86h4.44s.03,1.73.03,1.73Z"/>
  <polygon class="st2" points="70.85 25.12 68.11 25.03 65.95 22.1 63.97 25.04 61.23 25.13 64.62 20.42 61.48 15.95 64.08 15.97 66.09 18.73 68.02 15.96 70.6 15.95 67.42 20.3 70.85 25.12"/>
</svg>