<?xml version="1.0" encoding="UTF-8"?>
<svg id="Capa_1" xmlns="http://www.w3.org/2000/svg" version="1.1" viewBox="0 0 320 320">
  <!-- Generator: Adobe Illustrator 30.4.0, SVG Export Plug-In . SVG Version: 2.1.4 Build 226)  -->
  <defs>
    <style>
      .st0 {
        fill: #075356;
      }

      .st1 {
        fill: #0ea7b7;
      }
    </style>
  </defs>
  <path class="st0" d="M129.61,124.19l-9.43-8.13c-.27.92-.88,3.17-.88,3.84l.02,28.14-7.55,6.29-6.3,5.23-4.89,3.56-.02-54.26c.33-1.42,3.38-3.95,4.6-4.9l14.28-11.1,65.66,56.95-5.86,5.74-5.36,4.69c-.55.48-2.65-.04-3.22-.54l-6.04-5.23-10.39-8.98-24.63-21.28h0Z"/>
  <path class="st0" d="M135.54,170.91l12.86-10.91,11.67,10.07,24.38,21.02,14.26,12.29c-.13.02.78-.18,2.11-.5l-.29-20.27c-.03-2.11-1.25-7.36.15-8.59l9.48-8.34,9.22-7.59.16,53.64-9.36,8.61-9.32,7.13-18.85-16.12-11.52-10.03-21.35-18.42-9.75-8.41-3.87-3.61v.02Z"/>
  <path class="st1" d="M149.02,202.58l-5.3,4.39-8.72,7.21-6.78,5.61-9.32,7.72-4.11-2.79-5.94-4.61-5.76-4.46c-1.03-.8-2.6-3.62-2.6-4.92l-.02-29.44c0-3.01,0-9.2,2.08-11.22l6.87-6.61,6.38-5.14,7.51-6.08,6.26-5.08,6.92-5.61,2.23-1.82c.52-.41,1.95,1.24,2.49,1.72l7.91,6.92c.47.41,1.76,1.68,1.37,2.1l-1.73,1.85-16.27,13.5-11.33,10.17c-1.37,1.23-1.58,5.72-1.56,7.5l.13,6.82.26,15,6.34-5.26,8.11-6.72,6.83-5.66c.42-.35,1.72-1.12,2.23-1.35s1.68.67,2.13,1.07l10.7,9.15-7.32,6.05h0Z"/>
  <path class="st1" d="M178.36,163.4l5.5-4.58,7.65-6.34c2.9-2.4,8.6-7.21,8.66-11.29l.24-16.89-.29-8.03-6.85,4.55-11.09,9.33-5.2,4.37-10.62-8.95c-.45-.38-1.76-1.41-1.44-1.85s1.25-1.47,1.75-1.88l8.72-7.25,8.68-7.22,7.38-6.18,9.85-8.7,7.05,5.54,7.13,5.6c1.66,1.3,4.03,3.58,4.02,5.71l-.05,35.12c0,5.11-3.25,9.05-6.99,12.02l-5.71,4.54-8.74,7.17-5.59,4.58-10.66,8.71-7.39-6.53-4.72-4.3,8.7-7.27h-.01Z"/>
</svg>