<svg xmlns="http://www.w3.org/2000/svg" width="1000" height="1000" viewBox="0 0 1000 1000">
  <rect width="1000" height="1000" fill="#e9e6df"/>
  <g stroke="#b0aa9a" stroke-width="10" fill="none" stroke-linecap="round" stroke-linejoin="round">
    <path d="M380 480 q0-70 70-70 h200 q70 0 70 70 v60 q0 90-60 90 q-30 0-40-30 l-10-24 q-6-14-20-14 h-40 q-14 0-20 14 l-10 24 q-10 30-40 30 q-60 0-60-90z"/>
    <circle cx="660" cy="470" r="12"/>
    <circle cx="700" cy="510" r="12"/>
    <path d="M430 470h40M450 450v40" stroke-width="8"/>
  </g>
  <text x="500" y="740" text-anchor="middle" font-family="monospace" font-size="26" font-weight="700" fill="#8a8578">MANDO GAMING</text>
  <text x="500" y="780" text-anchor="middle" font-family="monospace" font-size="18" fill="#a39d8e">Foto lifestyle pendiente</text>
</svg>
